<?xml version="1.0" standalone="no"?>
<!DOCTYPE svg PUBLIC "-//W3C//DTD SVG 20010904//EN"
 "http://www.w3.org/TR/2001/REC-SVG-20010904/DTD/svg10.dtd">
<svg version="1.0" xmlns="http://www.w3.org/2000/svg"
 width="1218.000000pt" height="1280.000000pt" viewBox="0 0 1218.000000 1280.000000"
 preserveAspectRatio="xMidYMid meet">
<g transform="translate(0.000000,1280.000000) scale(0.100000,-0.100000)"
fill="#000000" stroke="none">
<path d="M935 12779 c-130 -27 -230 -63 -319 -114 -262 -149 -436 -399 -481
-693 -13 -80 -15 -200 -13 -687 l3 -590 292 -3 291 -2 43 77 c61 113 169 217
280 273 117 57 155 60 250 21 363 -152 509 -597 307 -939 -52 -89 -160 -191
-253 -239 -123 -63 -150 -68 -228 -40 -160 58 -282 166 -363 320 l-35 67 -295
0 -294 0 2 -982 3 -983 289 0 289 0 41 80 c74 147 226 279 374 325 l62 19 65
-23 c96 -35 171 -83 245 -156 75 -76 121 -149 157 -252 23 -64 27 -90 27 -203
1 -111 -2 -140 -23 -200 -67 -199 -213 -351 -406 -421 l-66 -24 -62 21 c-34
11 -87 35 -117 52 -77 43 -208 178 -248 255 l-33 62 -300 0 -299 0 2 -982 3
-983 305 0 304 0 41 72 c22 40 61 97 87 127 83 95 258 196 339 196 47 0 167
-55 241 -111 165 -124 258 -311 258 -524 0 -111 -18 -184 -72 -295 -71 -147
-218 -273 -376 -325 -50 -16 -56 -16 -105 0 -100 32 -170 77 -258 165 -66 65
-94 102 -120 157 l-34 72 -308 0 -307 1 2 -1082 3 -1083 300 -3 300 -2 45 87
c62 124 163 224 285 284 114 56 168 59 265 13 240 -115 380 -336 380 -598 0
-111 -18 -185 -70 -292 -71 -146 -203 -264 -356 -320 l-72 -26 -64 21 c-143
48 -286 168 -363 305 l-37 66 -309 0 -309 0 0 -912 c0 -995 1 -1005 57 -1170
76 -221 230 -404 439 -523 92 -52 191 -87 329 -115 99 -20 135 -20 4135 -20
l4035 0 117 24 c219 46 389 137 529 283 160 169 244 350 269 583 13 131 13
10889 0 11020 -25 233 -108 414 -270 584 -141 147 -306 236 -530 282 l-115 24
-4045 -1 c-3913 -2 -4048 -2 -4135 -20z"/>
<path d="M11222 10795 c-141 -39 -216 -108 -238 -218 -7 -34 -25 -91 -41 -127
l-28 -65 0 -760 0 -760 30 -65 30 -65 5 -2708 c5 -2667 5 -2709 24 -2723 31
-22 662 -21 694 2 l22 15 0 2690 0 2690 24 47 c56 112 56 105 56 756 0 331 3
610 6 621 5 18 12 20 90 17 l85 -3 -3 68 -3 68 -68 3 c-41 2 -74 -2 -82 -8
-11 -9 -15 -4 -20 27 -16 97 -27 137 -47 176 -12 23 -25 68 -29 100 -12 96
-78 166 -197 209 -75 27 -236 34 -310 13z"/>
<path d="M34 10627 c-2 -7 -3 -80 -2 -162 l3 -150 647 0 c637 0 647 0 674 21
45 33 67 70 71 121 7 63 -14 112 -63 149 l-37 29 -644 3 c-525 2 -644 0 -649
-11z"/>
<path d="M12000 10278 c-1 -2 -2 -393 -3 -871 l-2 -867 93 0 92 0 0 870 0 870
-90 0 c-49 0 -90 -1 -90 -2z"/>
<path d="M11936 8661 l-28 -29 28 -36 c16 -20 32 -36 37 -36 4 0 7 29 7 65 0
36 -4 65 -8 65 -5 0 -21 -13 -36 -29z"/>
<path d="M0 8025 l0 -165 628 0 c661 1 674 2 724 47 79 70 66 208 -24 263 -32
19 -52 20 -680 20 l-648 0 0 -165z"/>
<path d="M0 5605 l0 -165 634 0 c423 0 644 4 663 11 43 16 92 69 104 112 19
72 -13 148 -79 185 l-40 22 -641 0 -641 0 0 -165z"/>
<path d="M11010 3199 c0 -13 18 -72 146 -466 l85 -263 94 0 c83 0 96 2 105 19
13 26 260 700 260 712 0 5 -149 9 -345 9 -253 0 -345 -3 -345 -11z"/>
<path d="M0 2975 l0 -165 641 0 c571 0 645 2 675 16 68 32 106 115 85 186 -16
53 -63 102 -109 116 -28 9 -216 12 -666 12 l-626 0 0 -165z"/>
<path d="M11274 2392 c-8 -5 -1 -39 23 -116 19 -60 38 -105 42 -100 13 16 80
212 73 218 -8 9 -125 7 -138 -2z"/>
</g>
</svg>
